<svg xmlns="http://www.w3.org/2000/svg" xmlns:xlink="http://www.w3.org/1999/xlink" version="1.1" id="Layer_1" x="0px" y="0px" style="enable-background:new 0 0 160 40;" xml:space="preserve" viewBox="12.25 3.67 135.5 32.66">
<style type="text/css">
	.st0{fill:#2479FE;}
	.st1{fill:#05DB89;}
	.st2{fill:#050353;}
	.st3{clip-path:url(#SVGID_2_);}
	.st4{fill:#FFFFFF;}
	.st5{fill:url(#SVGID_3_);}
	.st6{fill:url(#SVGID_4_);}
	.st7{opacity:0.5;fill:url(#SVGID_5_);}
	.st8{fill:url(#SVGID_6_);}
	.st9{fill:url(#SVGID_7_);}
	.st10{fill:url(#SVGID_8_);}
	.st11{fill:url(#SVGID_9_);}
	.st12{fill:url(#SVGID_10_);}
	.st13{fill:url(#SVGID_11_);}
	.st14{fill:url(#SVGID_12_);}
	.st15{fill:url(#SVGID_13_);}
	.st16{fill:url(#SVGID_14_);}
	.st17{fill:none;stroke:url(#SVGID_15_);stroke-width:0.5;stroke-miterlimit:10;}
	.st18{fill:none;stroke:url(#SVGID_16_);stroke-width:0.5;stroke-miterlimit:10;}
	.st19{fill:none;stroke:url(#SVGID_17_);stroke-width:0.5;stroke-miterlimit:10;}
	.st20{fill:url(#SVGID_18_);}
	.st21{fill:url(#SVGID_19_);}
	.st22{fill:url(#SVGID_20_);}
	.st23{fill:url(#SVGID_21_);}
	.st24{fill:#FAFAFA;}
	.st25{clip-path:url(#SVGID_23_);}
	.st26{fill:url(#SVGID_24_);}
	.st27{fill:url(#SVGID_25_);}
	.st28{opacity:0.5;fill:url(#SVGID_26_);}
	.st29{fill:url(#SVGID_27_);}
	.st30{fill:url(#SVGID_28_);}
	.st31{fill:url(#SVGID_29_);}
	.st32{fill:url(#SVGID_30_);}
	.st33{fill:url(#SVGID_31_);}
	.st34{fill:url(#SVGID_32_);}
	.st35{fill:url(#SVGID_33_);}
	.st36{fill:url(#SVGID_34_);}
	.st37{fill:url(#SVGID_35_);}
	.st38{fill:none;stroke:url(#SVGID_36_);stroke-width:0.5;stroke-miterlimit:10;}
	.st39{fill:none;stroke:url(#SVGID_37_);stroke-width:0.5;stroke-miterlimit:10;}
	.st40{fill:none;stroke:url(#SVGID_38_);stroke-width:0.5;stroke-miterlimit:10;}
	.st41{fill:url(#SVGID_39_);}
	.st42{fill:url(#SVGID_40_);}
	.st43{fill:url(#SVGID_41_);}
	.st44{fill:url(#SVGID_42_);}
	.st45{clip-path:url(#SVGID_44_);}
	.st46{fill:url(#SVGID_45_);}
	.st47{fill:url(#SVGID_46_);}
	.st48{opacity:0.5;fill:url(#SVGID_47_);}
	.st49{fill:url(#SVGID_48_);}
	.st50{fill:url(#SVGID_49_);}
	.st51{fill:url(#SVGID_50_);}
	.st52{fill:url(#SVGID_51_);}
	.st53{fill:url(#SVGID_52_);}
	.st54{fill:url(#SVGID_53_);}
	.st55{fill:url(#SVGID_54_);}
	.st56{fill:url(#SVGID_55_);}
	.st57{fill:url(#SVGID_56_);}
	.st58{fill:none;stroke:url(#SVGID_57_);stroke-width:0.5;stroke-miterlimit:10;}
	.st59{fill:none;stroke:url(#SVGID_58_);stroke-width:0.5;stroke-miterlimit:10;}
	.st60{fill:none;stroke:url(#SVGID_59_);stroke-width:0.5;stroke-miterlimit:10;}
	.st61{fill:url(#SVGID_60_);}
	.st62{fill:url(#SVGID_61_);}
	.st63{fill:url(#SVGID_62_);}
	.st64{fill:url(#SVGID_63_);}
	.st65{clip-path:url(#SVGID_65_);}
	.st66{fill:url(#SVGID_66_);}
	.st67{fill:url(#SVGID_67_);}
	.st68{opacity:0.5;fill:url(#SVGID_68_);}
	.st69{fill:url(#SVGID_69_);}
	.st70{fill:url(#SVGID_70_);}
	.st71{fill:url(#SVGID_71_);}
	.st72{fill:url(#SVGID_72_);}
	.st73{fill:url(#SVGID_73_);}
	.st74{fill:url(#SVGID_74_);}
	.st75{fill:url(#SVGID_75_);}
	.st76{fill:url(#SVGID_76_);}
	.st77{fill:url(#SVGID_77_);}
	.st78{fill:none;stroke:url(#SVGID_78_);stroke-width:0.5;stroke-miterlimit:10;}
	.st79{fill:none;stroke:url(#SVGID_79_);stroke-width:0.5;stroke-miterlimit:10;}
	.st80{fill:none;stroke:url(#SVGID_80_);stroke-width:0.5;stroke-miterlimit:10;}
	.st81{fill:url(#SVGID_81_);}
	.st82{fill:url(#SVGID_82_);}
	.st83{fill:url(#SVGID_83_);}
	.st84{fill:url(#SVGID_84_);}
	.st85{clip-path:url(#SVGID_86_);}
	.st86{fill:url(#SVGID_87_);}
	.st87{fill:url(#SVGID_88_);}
	.st88{opacity:0.5;fill:url(#SVGID_89_);}
	.st89{fill:url(#SVGID_90_);}
	.st90{fill:url(#SVGID_91_);}
	.st91{fill:url(#SVGID_92_);}
	.st92{fill:url(#SVGID_93_);}
	.st93{fill:url(#SVGID_94_);}
	.st94{fill:url(#SVGID_95_);}
	.st95{fill:url(#SVGID_96_);}
	.st96{fill:url(#SVGID_97_);}
	.st97{fill:url(#SVGID_98_);}
	.st98{fill:none;stroke:url(#SVGID_99_);stroke-width:0.5;stroke-miterlimit:10;}
	.st99{fill:none;stroke:url(#SVGID_100_);stroke-width:0.5;stroke-miterlimit:10;}
	.st100{fill:none;stroke:url(#SVGID_101_);stroke-width:0.5;stroke-miterlimit:10;}
	.st101{fill:url(#SVGID_102_);}
	.st102{fill:url(#SVGID_103_);}
	.st103{fill:url(#SVGID_104_);}
	.st104{fill:url(#SVGID_105_);}
</style>
<g>
	<polygon class="st0" points="17.84,18.7 17.84,36.33 42.5,21.61 12.25,4.25 12.25,10.88 30.29,20.29 26.18,22.86  "/>
	<polygon class="st1" points="38.23,9.47 38.23,3.67 28.1,9.47 38.23,15.28  "/>
	<path class="st2" d="M53.28,11.98c2.42,0,4.42,0.77,5.99,2.32c1.58,1.55,2.37,3.51,2.37,5.9c0,2.39-0.79,4.36-2.37,5.92   c-1.58,1.56-3.58,2.34-5.99,2.34h-6.24V11.98H53.28z M53.19,25.15c1.41,0,2.57-0.46,3.46-1.39c0.9-0.93,1.34-2.11,1.34-3.56   c0-1.44-0.45-2.62-1.34-3.53c-0.89-0.91-2.05-1.37-3.46-1.37h-2.57v9.85H53.19z"/>
	<path class="st2" d="M71.42,15.44c1.44,0,2.58,0.48,3.42,1.44c0.83,0.96,1.25,2.25,1.25,3.86v7.73h-3.44v-7.16   c0-0.96-0.18-1.67-0.53-2.14s-0.92-0.71-1.68-0.71c-0.86,0-1.55,0.3-2.07,0.89c-0.52,0.6-0.78,1.41-0.78,2.43v6.69h-3.44V11.16   h3.44v5.77C68.61,15.94,69.89,15.44,71.42,15.44z"/>
	<polyline class="st1" points="79.23,10.85 82.67,10.85 82.67,14.06  "/>
	<rect x="79.23" y="15.75" class="st2" width="3.44" height="12.72"/>
	<path class="st2" d="M91.88,28.82c-1.26,0-2.4-0.29-3.43-0.88c-1.03-0.59-1.84-1.4-2.43-2.44s-0.88-2.18-0.88-3.44   c0-1.9,0.64-3.49,1.93-4.76c1.29-1.27,2.9-1.91,4.83-1.91c1.65,0,3.06,0.48,4.24,1.42c1.18,0.95,1.92,2.21,2.24,3.78h-3.42   c-0.28-0.61-0.69-1.1-1.24-1.45c-0.54-0.35-1.16-0.53-1.85-0.53c-0.93,0-1.7,0.33-2.32,0.99c-0.62,0.66-0.93,1.48-0.93,2.47   c0,0.99,0.31,1.82,0.94,2.5c0.63,0.68,1.4,1.01,2.31,1.01c0.69,0,1.3-0.18,1.84-0.55c0.53-0.37,0.95-0.9,1.25-1.59h3.46   c-0.31,1.62-1.07,2.92-2.26,3.9C94.98,28.33,93.55,28.82,91.88,28.82z"/>
	<path class="st2" d="M106.74,28.82c-1.3,0-2.48-0.29-3.53-0.87c-1.05-0.58-1.87-1.39-2.46-2.41c-0.59-1.03-0.88-2.17-0.88-3.43   c0-1.93,0.65-3.53,1.95-4.8c1.3-1.27,2.94-1.91,4.92-1.91c1.96,0,3.6,0.64,4.9,1.91c1.3,1.27,1.95,2.87,1.95,4.8   c0,1.92-0.66,3.51-1.97,4.79C110.32,28.18,108.69,28.82,106.74,28.82z M106.74,25.6c0.99,0,1.8-0.33,2.43-0.98   c0.63-0.65,0.94-1.49,0.94-2.51c0-1.02-0.31-1.86-0.94-2.51c-0.63-0.65-1.44-0.98-2.44-0.98c-1,0-1.81,0.33-2.44,0.98   c-0.63,0.65-0.94,1.49-0.94,2.51c0,0.5,0.08,0.97,0.25,1.41c0.16,0.44,0.4,0.81,0.69,1.11c0.3,0.3,0.66,0.53,1.07,0.71   C105.78,25.51,106.24,25.6,106.74,25.6z"/>
	<polyline class="st1" points="116.07,10.85 119.51,10.85 119.51,14.06  "/>
	<rect x="116.07" y="15.75" class="st2" width="3.44" height="12.72"/>
	<path class="st2" d="M130.06,15.44c1.44,0,2.59,0.48,3.43,1.45c0.84,0.97,1.26,2.26,1.26,3.87v7.7h-3.44v-7.16   c0-1.9-0.74-2.85-2.21-2.85c-0.58,0-1.09,0.13-1.52,0.4c-0.43,0.27-0.76,0.65-0.99,1.15c-0.23,0.5-0.34,1.09-0.34,1.77v6.69h-3.44   V15.75l0,0l3.04,1.58c0.24-0.3,0.51-0.56,0.81-0.79c0.31-0.23,0.64-0.42,1-0.59c0.36-0.16,0.74-0.29,1.14-0.38   C129.2,15.49,129.62,15.44,130.06,15.44z"/>
	<path class="st2" d="M142.43,28.82c-1.05,0-1.98-0.19-2.79-0.57c-0.81-0.38-1.44-0.91-1.88-1.6c-0.45-0.69-0.67-1.48-0.67-2.38   h3.34c0.02,0.38,0.11,0.69,0.29,0.95c0.18,0.26,0.43,0.45,0.74,0.57c0.31,0.12,0.68,0.18,1.08,0.18c0.33,0,0.63-0.05,0.9-0.14   c0.27-0.09,0.49-0.24,0.66-0.44c0.17-0.2,0.26-0.43,0.26-0.69c0-0.39-0.2-0.68-0.61-0.87c-0.41-0.19-1.02-0.35-1.84-0.49   c-0.52-0.08-0.95-0.16-1.28-0.24c-0.34-0.08-0.74-0.22-1.2-0.41c-0.46-0.2-0.83-0.42-1.11-0.67c-0.27-0.25-0.51-0.6-0.72-1.04   c-0.2-0.44-0.31-0.95-0.31-1.53c0-1.19,0.47-2.17,1.41-2.92c0.94-0.75,2.18-1.13,3.71-1.13s2.76,0.39,3.7,1.17   c0.93,0.78,1.4,1.8,1.4,3.07h-3.27c0-1-0.64-1.51-1.91-1.51c-0.53,0-0.95,0.11-1.25,0.33c-0.3,0.22-0.45,0.52-0.45,0.89   c0,0.16,0.04,0.3,0.13,0.44c0.09,0.13,0.19,0.24,0.31,0.32c0.12,0.08,0.3,0.15,0.55,0.22c0.25,0.07,0.46,0.12,0.64,0.15   c0.17,0.03,0.43,0.08,0.78,0.14c0.3,0.06,0.51,0.11,0.64,0.13c0.13,0.02,0.34,0.07,0.64,0.13c0.3,0.06,0.52,0.12,0.67,0.18   c0.15,0.06,0.35,0.13,0.61,0.22c0.26,0.09,0.46,0.19,0.59,0.29c0.13,0.1,0.3,0.22,0.49,0.37c0.2,0.14,0.35,0.3,0.46,0.47   c0.11,0.17,0.22,0.36,0.33,0.57c0.11,0.2,0.18,0.44,0.22,0.71c0.04,0.27,0.06,0.55,0.06,0.85c0,1.3-0.49,2.34-1.46,3.12   C145.32,28.43,144.03,28.82,142.43,28.82z"/>
</g>
</svg>